<svg width="32" height="32" viewBox="0 0 32 32" fill="none" xmlns="http://www.w3.org/2000/svg">
<rect width="32" height="32" rx="16" fill="#43E3B3"/>
<path d="M7.31641 9.30859C6.85938 8.88672 6.85938 8.14844 7.31641 7.72656C7.73828 7.26953 8.47656 7.26953 8.89844 7.72656L15.6484 14.4766C16.1055 14.8984 16.1055 15.6367 15.6484 16.0586L8.89844 22.8086C8.47656 23.2656 7.73828 23.2656 7.31641 22.8086C6.85938 22.3867 6.85938 21.6484 7.31641 21.2266L13.2578 15.25L7.31641 9.30859ZM26.125 20.875C26.7227 20.875 27.25 21.4023 27.25 22C27.25 22.6328 26.7227 23.125 26.125 23.125H16C15.3672 23.125 14.875 22.6328 14.875 22C14.875 21.4023 15.3672 20.875 16 20.875H26.125Z" fill="black"/>
</svg>
