<svg width="217" height="30" viewBox="0 0 217 30" fill="none" xmlns="http://www.w3.org/2000/svg">
<path d="M1.42188 7.07812C0.8125 6.51562 0.8125 5.53125 1.42188 4.96875C1.98438 4.35938 2.96875 4.35938 3.53125 4.96875L12.5312 13.9688C13.1406 14.5312 13.1406 15.5156 12.5312 16.0781L3.53125 25.0781C2.96875 25.6875 1.98438 25.6875 1.42188 25.0781C0.8125 24.5156 0.8125 23.5312 1.42188 22.9688L9.34375 15L1.42188 7.07812ZM26.5 22.5C27.2969 22.5 28 23.2031 28 24C28 24.8438 27.2969 25.5 26.5 25.5H13C12.1562 25.5 11.5 24.8438 11.5 24C11.5 23.2031 12.1562 22.5 13 22.5H26.5Z" fill="white"/>
<path d="M57.824 12.292C57.824 14.164 57.232 15.58 56.048 16.54C54.88 17.484 53.28 17.956 51.248 17.956H49.424V23.5H45.488V6.868H50.72C53.024 6.868 54.784 7.324 56 8.236C57.216 9.132 57.824 10.484 57.824 12.292ZM53.792 12.292C53.792 10.548 52.792 9.676 50.792 9.676H49.424V15.124H50.984C51.88 15.124 52.568 14.892 53.048 14.428C53.544 13.964 53.792 13.252 53.792 12.292ZM69.7906 10.372C70.5586 10.372 71.2626 10.5 71.9026 10.756L71.2066 16.084H68.8066V13.732C68.1026 13.86 67.4786 14.244 66.9346 14.884C66.3906 15.524 65.9666 16.332 65.6626 17.308V20.956H68.1826V23.5H60.1906V20.956H61.8706V13.276H60.1906V10.756H64.7746L65.4466 13.612C65.9106 12.524 66.4946 11.716 67.1986 11.188C67.9026 10.644 68.7666 10.372 69.7906 10.372ZM79.9813 10.324C81.9173 10.324 83.4293 10.94 84.5173 12.172C85.6213 13.388 86.1733 15.028 86.1733 17.092C86.1733 19.236 85.6293 20.908 84.5413 22.108C83.4533 23.308 81.9333 23.908 79.9813 23.908C78.0293 23.908 76.5093 23.316 75.4213 22.132C74.3333 20.932 73.7893 19.26 73.7893 17.116C73.7893 15.756 74.0293 14.572 74.5093 13.564C75.0053 12.54 75.7173 11.748 76.6453 11.188C77.5893 10.612 78.7013 10.324 79.9813 10.324ZM79.9813 13.132C79.1973 13.132 78.6213 13.452 78.2533 14.092C77.8853 14.716 77.7013 15.724 77.7013 17.116C77.7013 18.524 77.8853 19.548 78.2533 20.188C78.6213 20.812 79.1973 21.124 79.9813 21.124C80.7653 21.124 81.3413 20.804 81.7093 20.164C82.0773 19.524 82.2613 18.5 82.2613 17.092C82.2613 15.716 82.0773 14.716 81.7093 14.092C81.3413 13.452 80.7653 13.132 79.9813 13.132ZM98.2839 10.324C99.1959 10.324 99.8599 10.628 100.276 11.236C100.708 11.828 100.924 12.772 100.924 14.068V23.5H97.6839V14.5C97.6839 14.036 97.6359 13.716 97.5399 13.54C97.4599 13.364 97.2999 13.276 97.0599 13.276C96.6119 13.276 96.1719 13.556 95.7399 14.116V23.5H93.0519V14.5C93.0519 14.036 93.0039 13.716 92.9079 13.54C92.8279 13.364 92.6679 13.276 92.4279 13.276C91.9799 13.276 91.5399 13.556 91.1079 14.116V23.5H87.8199V10.756H90.5799L90.8439 11.98C91.2599 11.404 91.6679 10.988 92.0679 10.732C92.4839 10.46 92.9639 10.324 93.5079 10.324C94.0039 10.324 94.4199 10.452 94.7559 10.708C95.0919 10.948 95.3319 11.324 95.4759 11.836C96.3399 10.828 97.2759 10.324 98.2839 10.324ZM110.299 10.324C111.899 10.324 113.075 10.916 113.827 12.1C114.579 13.268 114.955 14.932 114.955 17.092C114.955 18.404 114.755 19.58 114.355 20.62C113.971 21.644 113.411 22.452 112.675 23.044C111.939 23.62 111.067 23.908 110.059 23.908C108.827 23.908 107.819 23.468 107.035 22.588V28.42L103.243 28.828V10.756H106.603L106.771 12.172C107.267 11.548 107.819 11.084 108.427 10.78C109.051 10.476 109.675 10.324 110.299 10.324ZM109.123 13.132C108.323 13.132 107.627 13.628 107.035 14.62V19.996C107.307 20.38 107.587 20.668 107.875 20.86C108.179 21.036 108.523 21.124 108.907 21.124C109.611 21.124 110.139 20.812 110.491 20.188C110.859 19.548 111.043 18.532 111.043 17.14C111.043 15.636 110.883 14.596 110.563 14.02C110.243 13.428 109.763 13.132 109.123 13.132ZM129.105 22.756C127.905 23.524 126.513 23.908 124.929 23.908C123.297 23.908 122.065 23.492 121.233 22.66C120.417 21.828 120.009 20.66 120.009 19.156V13.372H117.345V10.756H120.009V7.996L123.801 7.54V10.756H127.905L127.521 13.372H123.801V19.156C123.801 19.78 123.945 20.228 124.233 20.5C124.521 20.772 124.985 20.908 125.625 20.908C126.425 20.908 127.169 20.716 127.857 20.332L129.105 22.756ZM153.878 23.5H149.942V9.892H145.262V6.868H158.726L158.342 9.892H153.878V23.5ZM166.325 10.324C168.261 10.324 169.773 10.94 170.861 12.172C171.965 13.388 172.517 15.028 172.517 17.092C172.517 19.236 171.973 20.908 170.885 22.108C169.797 23.308 168.277 23.908 166.325 23.908C164.373 23.908 162.853 23.316 161.765 22.132C160.677 20.932 160.133 19.26 160.133 17.116C160.133 15.756 160.373 14.572 160.853 13.564C161.349 12.54 162.061 11.748 162.989 11.188C163.933 10.612 165.045 10.324 166.325 10.324ZM166.325 13.132C165.541 13.132 164.965 13.452 164.597 14.092C164.229 14.716 164.045 15.724 164.045 17.116C164.045 18.524 164.229 19.548 164.597 20.188C164.965 20.812 165.541 21.124 166.325 21.124C167.109 21.124 167.685 20.804 168.053 20.164C168.421 19.524 168.605 18.5 168.605 17.092C168.605 15.716 168.421 14.716 168.053 14.092C167.685 13.452 167.109 13.132 166.325 13.132ZM180.716 10.324C182.652 10.324 184.164 10.94 185.252 12.172C186.356 13.388 186.908 15.028 186.908 17.092C186.908 19.236 186.364 20.908 185.276 22.108C184.188 23.308 182.668 23.908 180.716 23.908C178.764 23.908 177.244 23.316 176.156 22.132C175.068 20.932 174.524 19.26 174.524 17.116C174.524 15.756 174.764 14.572 175.244 13.564C175.74 12.54 176.452 11.748 177.38 11.188C178.324 10.612 179.436 10.324 180.716 10.324ZM180.716 13.132C179.932 13.132 179.356 13.452 178.988 14.092C178.62 14.716 178.436 15.724 178.436 17.116C178.436 18.524 178.62 19.548 178.988 20.188C179.356 20.812 179.932 21.124 180.716 21.124C181.5 21.124 182.076 20.804 182.444 20.164C182.812 19.524 182.996 18.5 182.996 17.092C182.996 15.716 182.812 14.716 182.444 14.092C182.076 13.452 181.5 13.132 180.716 13.132ZM196.234 19.492C196.234 20.436 196.778 20.908 197.866 20.908C198.458 20.908 199.066 20.78 199.69 20.524L200.578 23.068C199.554 23.628 198.33 23.908 196.906 23.908C195.418 23.908 194.298 23.484 193.546 22.636C192.81 21.772 192.442 20.564 192.442 19.012V8.284H188.698V5.692H196.234V19.492ZM209.089 21.196C209.745 21.196 210.257 21.1 210.625 20.908C211.009 20.7 211.201 20.396 211.201 19.996C211.201 19.708 211.121 19.476 210.961 19.3C210.817 19.124 210.537 18.956 210.121 18.796C209.705 18.62 209.057 18.412 208.177 18.172C206.897 17.836 205.921 17.372 205.249 16.78C204.577 16.172 204.241 15.34 204.241 14.284C204.241 13.116 204.721 12.164 205.681 11.428C206.657 10.692 208.017 10.324 209.761 10.324C211.777 10.324 213.497 10.844 214.921 11.884L213.409 14.116C212.241 13.396 211.065 13.036 209.881 13.036C209.257 13.036 208.793 13.116 208.489 13.276C208.201 13.436 208.057 13.684 208.057 14.02C208.057 14.244 208.129 14.436 208.273 14.596C208.433 14.74 208.721 14.892 209.137 15.052C209.569 15.212 210.209 15.412 211.057 15.652C211.969 15.908 212.713 16.188 213.289 16.492C213.881 16.796 214.337 17.204 214.657 17.716C214.977 18.228 215.137 18.884 215.137 19.684C215.137 20.58 214.865 21.348 214.321 21.988C213.777 22.628 213.049 23.108 212.137 23.428C211.225 23.748 210.217 23.908 209.113 23.908C207.929 23.908 206.857 23.74 205.897 23.404C204.937 23.068 204.121 22.596 203.449 21.988L205.345 19.852C206.497 20.748 207.745 21.196 209.089 21.196Z" fill="white"/>
</svg>
